<svg width="40" height="40" viewBox="0 0 40 40" fill="#bdbdbd" xmlns="http://www.w3.org/2000/svg">
<path d="M0 4.11765C0 1.84353 1.84353 0 4.11765 0H35.8824C38.1565 0 40 1.84353 40 4.11765V35.8824C40 38.1565 38.1565 40 35.8824 40H4.11765C1.84353 40 0 38.1565 0 35.8824V4.11765Z"/>
<path d="M34.3127 14.9746C33.7919 14.0371 32.6096 13.6993 31.6721 14.2202L28.5912 15.9318L26.5604 12.8259C25.1614 11.7601 23.7522 10.8819 22.3337 9.83322C19.9523 9.83304 15.3975 9.83322 15.3975 9.83322C14.6897 9.83322 14.038 10.2183 13.6965 10.8383L11.2369 15.3046C10.7195 16.244 11.0617 17.4249 12.001 17.9422C12.2981 18.1058 12.6193 18.1835 12.9361 18.1835C13.6209 18.1835 14.285 17.8204 14.6387 17.1781L16.5449 13.7169H20.2123L14.613 23.4909H7.82421C6.7518 23.4909 5.88235 24.3603 5.88235 25.4327C5.88235 26.5051 6.75174 27.3746 7.82421 27.3746H15.7211C16.4079 27.3746 17.0435 27.0119 17.3929 26.4206L18.7878 24.06L22.3094 26.8347L20.198 32.0875C19.798 33.0826 20.2804 34.2135 21.2755 34.6135C21.513 34.7089 21.758 34.7541 21.9991 34.7541C22.7686 34.7541 23.497 34.2937 23.8015 33.5359L26.4553 26.9336C26.7769 26.1338 26.5326 25.2176 25.8554 24.6841L21.9506 21.6076L24.6504 17.0014L26.3295 19.5694C26.7003 20.1364 27.3204 20.4489 27.9562 20.4489C28.276 20.4489 28.5999 20.3697 28.8978 20.2042L33.5583 17.6151C34.4957 17.0944 34.8335 15.9121 34.3127 14.9746Z" fill="white"/>
<path d="M26.1584 11.1788C27.9458 11.1788 29.3948 9.72975 29.3948 7.94232C29.3948 6.15488 27.9458 4.70588 26.1584 4.70588C24.3709 4.70588 22.9219 6.15488 22.9219 7.94232C22.9219 9.72975 24.3709 11.1788 26.1584 11.1788Z" fill="white"/>
</svg>
