<svg width="94" height="73" viewBox="0 0 94 73" fill="none" xmlns="http://www.w3.org/2000/svg">
<path d="M94 2.13792V10.6896H75.2504C55.2181 10.6896 36.9817 22.3413 28.5582 40.4708L25.5865 38.4826L18.2749 42.566C17.2059 42.0743 16.7356 40.8129 17.2273 39.7439C27.9596 15.6068 51.9685 0 78.3932 0H91.862C93.0379 0 94 0.962064 94 2.13792Z" fill="#E26667"/>
<path d="M93.9998 10.6897V21.3793H76.8965C59.9641 21.3793 44.6139 31.1068 37.3663 46.3288L32.1498 42.8654L28.5581 40.4709C36.9815 22.3414 55.218 10.6897 75.2503 10.6897H93.9998Z" fill="#FFD889"/>
<path d="M93.9997 21.3792V34.2067C93.9997 35.3825 93.0376 36.3446 91.8618 36.3446H76.5756C64.6247 36.3446 53.7641 43.3997 48.911 54.3245C48.4577 55.3828 47.1151 55.898 46.0675 55.3935L44.8275 51.31C42.9847 50.0615 39.2091 47.5665 37.3662 46.3287C44.6138 31.1067 59.964 21.3792 76.8963 21.3792H93.9997Z" fill="#9BC8D3"/>
<path d="M38.4139 47.0343C30.2449 33.7771 10.1656 36.5435 6.72142 52.0691C-4.14349 56.3449 -1.11192 72.6188 10.621 72.6893H38.4139C55.3612 72.1527 55.3676 47.573 38.4139 47.0343Z" fill="#F2F2F2"/>
</svg>
