<svg width="67" height="67" viewBox="0 0 67 67" fill="none" xmlns="http://www.w3.org/2000/svg">
<path d="M44.0476 0.00511662C39.7888 -0.125828 36.2015 2.38191 33.4974 5.4652C30.7932 2.38648 27.2059 -0.128873 22.9472 0.00511662C16.1716 0.00511662 10.6582 5.51849 10.6582 12.2941C10.6582 17.5091 12.9284 22.4454 16.8887 25.8393L32.5077 39.2261C33.0756 39.7148 33.9191 39.7148 34.4886 39.2261L50.1075 25.8393C59.7228 17.9293 58.3525 0.591322 44.0476 0.00511662Z" fill="#FF333F"/>
<path d="M62.2746 25.8894C59.8384 25.8894 57.8195 27.7165 57.5774 30.139L56.3973 41.9453L50.8763 47.4663L51.4123 43.7207C51.7138 41.6058 50.4637 39.5822 48.4386 38.9062C46.4288 38.2363 44.2134 39.095 43.1826 40.9511L37.5017 51.1769C36.8744 52.3052 36.5425 53.5827 36.5425 54.8754V65.4773C36.5425 66.3178 37.2231 66.9999 38.0651 66.9999H53.2912C53.7998 66.9999 54.2748 66.7456 54.558 66.3223L65.7157 49.5843C66.5516 48.3312 66.9947 46.871 66.9947 45.3606V30.6095C66.9947 28.0074 64.8768 25.8894 62.2746 25.8894Z" fill="#FFD889"/>
<path d="M23.8136 40.9528C21.4673 36.723 14.8896 38.9308 15.5839 43.7209L16.1199 47.4681L10.5974 41.9456L9.41735 30.1392C8.73065 24.2559 0.114196 24.6746 0 30.6097V45.3608C0 46.8712 0.44308 48.3314 1.27899 49.583L12.4367 66.3211C12.7199 66.7459 13.195 67.0001 13.7035 67.0001H28.9296C29.7716 67.0001 30.4522 66.318 30.4522 65.4775V54.8756C30.4522 53.5844 30.1203 52.3054 29.4945 51.1772L23.8136 40.9528Z" fill="#FFD889"/>
</svg>
