<svg width="79" height="69" viewBox="0 0 79 69" fill="none" xmlns="http://www.w3.org/2000/svg">
<path d="M25.1279 0.000676661C0.653011 -0.117898 -10.3726 25.9865 12.5518 36.8774V44.9154C12.5069 46.3993 14.4131 47.2887 15.518 46.279L23.4517 39.4789C26.3568 39.5076 29.5888 39.646 32.2783 38.5321L48.9543 25.3757C54.6926 12.2588 40.875 -0.105322 25.1279 0.000676661Z" fill="#8ED7AB"/>
<path d="M53.8735 21.5597C20.5037 22.6574 20.5091 59.9905 53.8735 61.0846C54.4376 61.0846 54.9964 61.0684 55.5497 61.0397L63.4834 67.8398C64.5847 68.8423 66.4981 67.9638 66.4496 66.4744V58.4365C89.3723 47.5491 78.3466 21.4375 53.8735 21.5597Z" fill="#E9F6A7"/>
<path d="M58.3196 32.3392C56.6434 32.3392 55.066 32.986 53.8731 34.1628C52.6801 32.986 51.1027 32.3392 49.4265 32.3392C42.3965 32.4722 41.2341 41.3545 46.1208 45.2567L52.7017 50.898C53.3754 51.4747 54.3671 51.4747 55.0408 50.898L61.6235 45.2567C66.5085 41.3563 65.3515 32.4686 58.3196 32.3392Z" fill="#FF5C00"/>
<path d="M29.5745 10.7802C27.8983 10.7802 26.3209 11.4269 25.1279 12.6037C23.935 11.4269 22.3576 10.7802 20.6814 10.7802C13.6513 10.9131 12.489 19.7954 17.3757 23.6976L23.9566 29.3389C24.6303 29.9156 25.622 29.9156 26.2957 29.3389L32.8784 23.6976C37.7633 19.7972 36.6081 10.9095 29.5745 10.7802Z" fill="#FF5C00"/>
</svg>
