<svg width="139" height="107" viewBox="0 0 139 107" fill="none" xmlns="http://www.w3.org/2000/svg">
<path d="M138.369 3.14705V15.7352H110.77C81.282 15.7352 54.4376 32.8867 42.0383 59.5737L37.6639 56.6469L26.9009 62.6578C25.3274 61.9339 24.6351 60.0772 25.3589 58.5037C41.1571 22.9735 76.4985 0 115.396 0H135.222C136.953 0 138.369 1.41617 138.369 3.14705Z" fill="#E26667"/>
<path d="M138.369 15.7355V31.4707H113.193C88.2682 31.4707 65.6724 45.7898 55.0039 68.1968L47.3251 63.0986L42.0381 59.5739C54.4375 32.8869 81.2818 15.7355 110.77 15.7355H138.369Z" fill="#FFD889"/>
<path d="M138.369 31.4705V50.3528C138.369 52.0836 136.953 53.4998 135.222 53.4998H112.721C95.1285 53.4998 79.1415 63.8851 71.9977 79.9665C71.3306 81.5243 69.3542 82.2827 67.8122 81.54L65.9869 75.5292C63.2741 73.6913 57.7164 70.0187 55.0037 68.1965C65.6722 45.7895 88.268 31.4705 113.193 31.4705H138.369Z" fill="#9BC8D3"/>
<path d="M56.5459 69.2354C44.521 49.7205 14.9639 53.7928 9.89403 76.6467C-6.09928 82.9408 -1.63676 106.896 15.6342 107H56.5459C81.4926 106.21 81.502 70.0284 56.5459 69.2354Z" fill="#F2F2F2"/>
</svg>
