<svg width="512" height="452" viewBox="0 0 512 452" fill="none" xmlns="http://www.w3.org/2000/svg">
<path d="M495.307 351.298C380.869 351.298 303.773 311.262 283.786 241.456C269.366 191.093 289.964 141.504 317.316 124.443C326.719 118.578 332.432 118.262 343.483 117.767C355.103 118.744 367.095 124.662 379.048 135.451C402.418 156.545 400.603 204.03 399.403 235.452C398.694 254.01 398.267 265.212 402.091 273.426C406.443 282.773 416.186 287.296 426.908 284.952C443.402 281.345 461.296 261.572 472.543 244.27C488.956 219.021 498.073 189.867 498.215 162.178C498.468 113.053 478.945 71.535 441.759 42.106C408.476 15.766 362.353 1.009 311.893 0.553004C236.551 -0.134996 160.957 30.076 104.563 83.47C57.8779 127.674 1.85388 209.256 0.0738816 346.899C-0.368118 381.058 1.37788 411.158 0.0988816 433.822C-0.442118 443.397 7.18788 451.457 16.7659 451.457C62.1089 451.457 448.909 451.457 495.307 451.457C504.526 451.457 512 443.983 512 434.764V367.991C512 358.771 504.526 351.298 495.307 351.298ZM33.9409 418.07C34.1019 397.174 33.1209 373.332 33.4569 347.332C36.3749 121.785 194.862 32.775 311.588 33.941C388.187 34.633 465.276 74.5 464.826 162.007C464.645 197.461 446.324 226.541 432.582 241.551C432.641 239.913 432.702 238.287 432.762 236.727C434.2 199.094 436.372 142.22 401.415 110.668C381.512 92.704 359.883 83.772 338.712 84.148C295.874 83.35 254.291 93.828 218.083 114.66C144.699 156.884 99.7819 236.662 99.9949 319.464C100.083 353.481 107.888 387.081 122.749 418.07H33.9409ZM160.522 418.072C114.167 338.57 129.075 243.776 188.839 179.831C176.756 203.62 169.625 230.463 168.208 258.471C165.931 303.477 178.56 347.16 203.768 381.473C214.201 395.675 226.485 407.913 240.383 418.072H160.522ZM478.614 418.072H328.644C236.029 404.643 198.06 329.205 201.554 260.158C203.694 217.849 222.003 174.71 257.972 147.128C243.866 179.798 242.129 217.251 251.69 250.649C262.737 289.231 288.183 321.761 325.276 344.726C364.653 369.103 416.177 382.433 478.615 384.426V418.072H478.614Z" />
</svg>
