<svg width="40" height="40" viewBox="0 0 40 40" fill="none" xmlns="http://www.w3.org/2000/svg">
<g clip-path="url(#clip0_232_599)">
<path fill-rule="evenodd" clip-rule="evenodd" d="M39.5608 13.8226C39.2701 13.2525 38.8501 12.7582 38.3341 12.3795L22.3341 0.771666C21.6559 0.278396 20.8387 0.0126953 20 0.0126953C19.1613 0.0126953 18.3442 0.278396 17.6659 0.771666L1.66591 12.3795C1.15006 12.758 0.730476 13.2525 0.441083 13.8231C0.151689 14.3937 0.000601967 15.0244 3.09709e-05 15.6642V35.956C-0.00414704 37.0222 0.414541 38.0465 1.16433 38.8046C1.91412 39.5626 2.93385 39.9924 4.00003 39.9999H36C37.0662 39.9924 38.0859 39.5626 38.8357 38.8046C39.5855 38.0465 40.0042 37.0222 40 35.956V15.6642C40.0001 15.0244 39.8496 14.3936 39.5608 13.8226ZM37.3334 35.956C37.3376 36.315 37.1998 36.6611 36.9501 36.919C36.7004 37.1769 36.359 37.3258 36 37.3332H4.00003C3.6411 37.3258 3.29963 37.1769 3.04993 36.919C2.80022 36.6611 2.66248 36.315 2.6667 35.956V15.6642C2.66721 15.4462 2.71878 15.2313 2.81729 15.0368C2.91529 14.8418 3.05832 14.6729 3.23454 14.5442L19.2345 2.93637C19.4572 2.77512 19.7251 2.6883 20 2.6883C20.275 2.6883 20.5429 2.77512 20.7655 2.93637L36.7655 14.5442C36.9412 14.6749 37.084 14.8446 37.1828 15.0399C37.2813 15.2344 37.3329 15.4493 37.3334 15.6673V35.956Z" fill="black"/>
<path fill-rule="evenodd" clip-rule="evenodd" d="M25.189 18.2422C25.189 18.9144 25.0567 19.5801 24.7995 20.2012C24.5423 20.8223 24.1653 21.3866 23.69 21.862C23.2147 22.3374 22.6505 22.7145 22.0294 22.9718C21.4084 23.2291 20.7428 23.3616 20.0705 23.3617C18.7129 23.3618 17.4108 22.8226 16.4507 21.8628C15.4906 20.9029 14.9512 19.6009 14.9511 18.2433C14.951 17.571 15.0833 16.9054 15.3405 16.2843C15.5977 15.6632 15.9747 15.0988 16.45 14.6235C17.4099 13.6634 18.7119 13.1239 20.0695 13.1238C21.4271 13.1236 22.7292 13.6628 23.6893 14.6227C24.6494 15.5826 25.1888 16.8846 25.189 18.2422ZM20.07 24.9277C12.6985 24.9277 9.83105 29.6189 9.83105 31.8014C9.83105 33.9829 15.9351 34.5643 20.07 34.5643C24.2049 34.5643 30.309 33.9829 30.309 31.8014C30.309 29.6189 27.4415 24.9277 20.07 24.9277Z" fill="black"/>
</g>
<defs>
<clipPath id="clip0_232_599">
<rect width="40" height="40" fill="white"/>
</clipPath>
</defs>
</svg>
