<svg width="54" height="43" viewBox="0 0 54 43" fill="none" xmlns="http://www.w3.org/2000/svg">
<path fill-rule="evenodd" clip-rule="evenodd" d="M24.012 2.83434C25.7868 4.48728 26.928 6.67203 27.2714 9.04787C28.6795 9.66265 29.9109 10.5676 30.9048 11.6762C30.3178 12.1636 29.7937 12.7241 29.3462 13.3436C28.4257 12.2662 27.227 11.4184 25.8353 10.9212L25.1404 10.6729L25.0848 9.93708C24.9274 7.85662 23.9965 5.92467 22.4636 4.49697C20.923 3.06223 18.9143 2.27208 16.8077 2.27208C14.7011 2.27208 12.6924 3.06223 11.1519 4.49705C9.61892 5.92474 8.68805 7.85677 8.53067 9.93716L8.47508 10.673L7.78012 10.9213C4.48569 12.0983 2.27223 15.2405 2.27223 18.7403C2.27223 23.3175 5.99601 27.0414 10.5733 27.0414C12.4268 27.0414 14.2184 26.4225 15.6717 25.2902V23.3773L10.5762 20.6982L11.6336 18.6872L15.6717 20.8103V11.3021H17.9437V15.7744L21.9817 13.6512L23.0392 15.6623L17.9437 18.3414V25.2902C19.397 26.4225 21.1886 27.0414 23.0421 27.0414C25.6136 27.0414 27.9158 25.866 29.4396 24.0244C29.8975 24.6356 30.4311 25.1868 31.0265 25.6641C29.0865 27.8984 26.2264 29.3134 23.042 29.3134C21.2451 29.3134 19.494 28.8566 17.9436 28.0027V38.7768H15.6715V28.0027C14.121 28.8566 12.3699 29.3134 10.5731 29.3134C4.74311 29.3134 0 24.5704 0 18.7403C0 14.525 2.5211 10.7171 6.34387 9.04787C6.68741 6.67203 7.82852 4.48728 9.60331 2.83434C11.5659 1.00661 14.1244 0 16.8077 0C19.4909 0 22.0495 1.00661 24.012 2.83434Z" />
<path fill-rule="evenodd" clip-rule="evenodd" d="M43.353 18.5674C43.3531 19.4723 43.1749 20.3684 42.8287 21.2045C42.4825 22.0406 41.975 22.8003 41.3352 23.4402C40.6954 24.0802 39.9358 24.5878 39.0998 24.9342C38.2638 25.2806 37.3677 25.4589 36.4628 25.459C34.6352 25.4592 32.8825 24.7334 31.59 23.4412C30.2976 22.149 29.5714 20.3964 29.5712 18.5688C29.5711 17.6639 29.7493 16.7678 30.0955 15.9317C30.4417 15.0957 30.9492 14.336 31.589 13.696C32.8812 12.4036 34.6338 11.6774 36.4614 11.6772C38.289 11.6771 40.0418 12.4029 41.3342 13.695C42.6266 14.9872 43.3528 16.7398 43.353 18.5674ZM36.4621 27.5671C26.539 27.5671 22.679 33.8822 22.679 36.8202C22.679 39.7567 30.8959 40.5394 36.4621 40.5394C42.0283 40.5394 50.2453 39.7567 50.2453 36.8202C50.2453 33.8822 46.3853 27.5671 36.4621 27.5671Z" />
</svg>
