<svg width="69" height="69" viewBox="0 0 69 69" fill="#333333" xmlns="http://www.w3.org/2000/svg">
<g clip-path="url(#clip0_98_3341)">
<path d="M67.334 48.845C66.2505 48.574 65.1533 49.2327 64.8826 50.3158L63.8719 54.3588C63.6011 55.4417 64.2596 56.5394 65.3427 56.81C65.5074 56.8513 65.6722 56.8709 65.8345 56.8709C66.7402 56.8709 67.5644 56.2576 67.7941 55.3392L68.8048 51.2962C69.0757 50.2134 68.4171 49.1157 67.334 48.845Z" />
<path d="M64.3018 60.9738C63.2184 60.7026 62.1211 61.3617 61.8504 62.4447L60.8396 66.4876C60.5689 67.5706 61.2274 68.6683 62.3105 68.9389C62.4752 68.9801 62.64 68.9998 62.8022 68.9998C63.708 68.9998 64.5322 68.3865 64.7619 67.4681L65.7726 63.4251C66.0435 62.3422 65.3849 61.2446 64.3018 60.9738Z" />
<path d="M54.1943 60.9738C53.1108 60.7026 52.0137 61.3617 51.743 62.4447L50.7322 66.4876C50.4615 67.5706 51.1199 68.6683 52.203 68.9389C52.3677 68.9801 52.5325 68.9998 52.6948 68.9998C53.6006 68.9998 54.4248 68.3865 54.6544 67.4681L55.6652 63.4251C55.9361 62.3422 55.2775 61.2446 54.1943 60.9738Z" />
<path d="M57.2266 48.845C56.1433 48.574 55.0459 49.2327 54.7752 50.3158L53.7644 54.3588C53.4937 55.4417 54.1522 56.5394 55.2353 56.81C55.4 56.8513 55.5648 56.8709 55.727 56.8709C56.6328 56.8709 57.457 56.2576 57.6867 55.3392L58.6974 51.2962C58.9683 50.2134 58.3097 49.1157 57.2266 48.845Z" />
<path d="M47.1191 48.845C46.0358 48.574 44.9385 49.2327 44.6678 50.3158L43.657 54.3588C43.3863 55.4417 44.0447 56.5394 45.1278 56.81C45.2925 56.8513 45.4573 56.8709 45.6196 56.8709C46.5254 56.8709 47.3496 56.2576 47.5792 55.3392L48.59 51.2962C48.8609 50.2134 48.2023 49.1157 47.1191 48.845Z" />
<path d="M44.0869 60.9738C43.0038 60.7026 41.9063 61.3617 41.6355 62.4447L40.6248 66.4876C40.354 67.5706 41.0125 68.6683 42.0956 68.9389C42.2603 68.9801 42.4251 68.9998 42.5874 68.9998C43.4931 68.9998 44.3174 68.3865 44.547 67.4681L45.5578 63.4251C45.8286 62.3422 45.17 61.2446 44.0869 60.9738Z" />
<path d="M37.0117 48.845C35.9282 48.574 34.8311 49.2327 34.5603 50.3158L33.5496 54.3588C33.2789 55.4417 33.9373 56.5394 35.0204 56.81C35.1851 56.8513 35.3499 56.8709 35.5122 56.8709C36.4179 56.8709 37.2422 56.2576 37.4718 55.3392L38.4826 51.2962C38.7534 50.2134 38.0948 49.1157 37.0117 48.845Z" />
<path d="M33.9795 60.9738C32.8963 60.7026 31.7989 61.3617 31.5281 62.4447L30.5174 66.4876C30.2466 67.5706 30.9051 68.6683 31.9882 68.9389C32.1529 68.9801 32.3177 68.9998 32.48 68.9998C33.3857 68.9998 34.2099 68.3865 34.4396 67.4681L35.4503 63.4251C35.7212 62.3422 35.0626 61.2446 33.9795 60.9738Z" />
<path d="M23.8721 60.9738C22.7887 60.7026 21.6914 61.3617 21.4207 62.4447L20.4099 66.4876C20.1392 67.5706 20.7977 68.6683 21.8808 68.9389C22.0455 68.9801 22.2103 68.9998 22.3725 68.9998C23.2783 68.9998 24.1025 68.3865 24.3322 67.4681L25.3429 63.4251C25.6138 62.3422 24.9552 61.2446 23.8721 60.9738Z" />
<path d="M26.9043 48.845C25.8212 48.574 24.7237 49.2327 24.4529 50.3158L23.4422 54.3588C23.1714 55.4417 23.8299 56.5394 24.913 56.81C25.0777 56.8513 25.2425 56.8709 25.4048 56.8709C26.3105 56.8709 27.1348 56.2576 27.3644 55.3392L28.3751 51.2962C28.646 50.2134 27.9874 49.1157 26.9043 48.845Z" />
<path d="M13.7647 60.9738C12.6815 60.7026 11.584 61.3617 11.3133 62.4447L10.3025 66.4876C10.0318 67.5706 10.6902 68.6683 11.7734 68.9389C11.938 68.9801 12.1029 68.9998 12.2651 68.9998C13.1709 68.9998 13.9951 68.3865 14.2247 67.4681L15.2355 63.4251C15.5064 62.3422 14.8478 61.2446 13.7647 60.9738Z" />
<path d="M16.7969 48.845C15.7136 48.574 14.6162 49.2327 14.3455 50.3158L13.3348 54.3588C13.064 55.4417 13.7225 56.5394 14.8056 56.81C14.9703 56.8513 15.1351 56.8709 15.2973 56.8709C16.2031 56.8709 17.0273 56.2576 17.257 55.3392L18.2677 51.2962C18.5386 50.2134 17.88 49.1157 16.7969 48.845Z" />
<path d="M3.65748 60.9738C2.57423 60.7026 1.47683 61.3617 1.20609 62.4447L0.195347 66.4876C-0.0753967 67.5706 0.583068 68.6683 1.66618 68.9389C1.83086 68.9801 1.99568 68.9998 2.15794 68.9998C3.0637 68.9998 3.88793 68.3865 4.11757 67.4681L5.12831 63.4251C5.39919 62.3422 4.74059 61.2446 3.65748 60.9738Z" />
<path d="M6.68946 48.845C5.60608 48.574 4.50882 49.2327 4.23807 50.3158L3.22733 54.3588C2.95659 55.4417 3.61505 56.5394 4.69816 56.81C4.86285 56.8513 5.02766 56.8709 5.18992 56.8709C6.09568 56.8709 6.91991 56.2576 7.14955 55.3392L8.16029 51.2962C8.43117 50.2134 7.77257 49.1157 6.68946 48.845Z" />
<path d="M23.8535 44.4727H57.5449C63.8613 44.4727 69 39.3339 69 33.0176C69 27.8648 65.6224 23.4712 60.8583 22.047C60.8953 21.6586 60.9141 21.2719 60.9141 20.8887C60.9141 13.8292 55.1708 8.08594 48.1113 8.08594C47.5046 8.08594 46.9052 8.13028 46.3156 8.21383C44.4433 3.35432 39.7033 0 34.3652 0C30.1101 0 26.1912 2.11124 23.8298 5.53375C22.1204 4.56236 20.1832 4.04297 18.1934 4.04297C11.877 4.04297 6.73828 9.18172 6.73828 15.498C6.73828 15.9095 6.76038 16.3198 6.80445 16.7275C2.80717 18.1039 0 21.8928 0 26.2793C0 31.8525 4.53419 36.3867 10.1074 36.3867H13.9495C14.8886 40.9946 18.9724 44.4727 23.8535 44.4727ZM48.1113 12.1289C52.9415 12.1289 56.8711 16.0585 56.8711 20.8887C56.8711 21.6132 56.7702 22.3641 56.571 23.1207C56.5694 23.1269 56.5691 23.1277 56.5692 23.1266C56.1843 24.5513 55.4218 25.9661 54.3053 27.0826C53.5158 27.872 53.5158 29.152 54.3053 29.9414C54.7 30.3361 55.2174 30.5336 55.7346 30.5336C56.2518 30.5336 56.7693 30.3361 57.1639 29.9414C58.34 28.7653 59.2362 27.4148 59.8572 25.9728C62.8502 26.9456 64.957 29.7439 64.957 33.0176C64.957 37.1046 61.632 40.4297 57.5449 40.4297H23.8535C20.5096 40.4297 17.7891 37.7092 17.7891 34.3652C17.7891 31.8013 19.3882 29.5789 21.6877 28.7033C22.232 29.7921 22.9536 30.798 23.8395 31.6838C24.2342 32.0785 24.7516 32.276 25.2688 32.276C25.7861 32.276 26.3036 32.0785 26.6983 31.6838C27.4876 30.8945 27.4876 29.6145 26.6983 28.825C25.8259 27.9527 25.1994 26.896 24.8504 25.7482C24.6361 25.0454 24.5273 24.3171 24.5273 23.584C24.5273 19.4969 27.8524 16.1719 31.9395 16.1719C33.3234 16.1719 34.6689 16.5631 35.835 17.2891C35.1951 19.4726 35.1306 21.8235 35.7129 24.0876C35.9909 25.1688 37.0932 25.8202 38.1741 25.5419C39.2553 25.2638 39.9065 24.1619 39.6285 23.0805C39.1371 21.1697 39.3231 19.1476 40.0868 17.3832C41.4838 14.1914 44.6337 12.1289 48.1113 12.1289ZM10.1074 32.3438C6.76348 32.3438 4.04297 29.6232 4.04297 26.2793C4.04297 23.2008 6.34719 20.6131 9.40273 20.26C9.99853 20.1911 10.533 19.8614 10.8617 19.3595C11.1903 18.8578 11.2792 18.2361 11.1043 17.6622C10.89 16.9594 10.7812 16.2312 10.7812 15.498C10.7812 11.411 14.1063 8.08594 18.1934 8.08594C20.0151 8.08594 21.771 8.76233 23.1378 9.99031C23.6205 10.4241 24.2822 10.5996 24.9164 10.4624C25.5508 10.3251 26.0805 9.89166 26.3407 9.29721C27.7377 6.10542 30.8876 4.04297 34.3652 4.04297C37.9263 4.04297 41.0979 6.22348 42.4415 9.4123C40.505 10.3705 38.823 11.8121 37.5759 13.6198C35.8665 12.6483 33.9293 12.1289 31.9395 12.1289C25.6231 12.1289 20.4844 17.2677 20.4844 23.584C20.4844 23.9954 20.5065 24.4058 20.5505 24.8136C17.183 25.973 14.6605 28.845 13.9492 32.3438H10.1074Z" />
</g>
<defs>
<clipPath id="clip0_98_3341">
<rect width="69" height="69" fill="white"/>
</clipPath>
</defs>
</svg>
