<svg width="72" height="69" viewBox="0 0 72 69" fill="#333333" xmlns="http://www.w3.org/2000/svg">
<path d="M71.0369 18.3678L36.8388 0.209959C36.3141 -0.0699863 35.6859 -0.0699863 35.1619 0.209959L0.961741 18.3678C0.370459 18.6817 0.000660163 19.3001 9.84947e-07 19.9744V30.8689C-0.000658193 31.5053 0.32959 32.0951 0.869456 32.4243C1.40932 32.7528 2.08037 32.7727 2.63869 32.4761L7.2002 30.0537V67.184C7.19954 67.6661 7.38938 68.1276 7.72688 68.4687C8.06438 68.8092 8.52251 69 8.99975 69H23.4001C24.002 69 24.5636 68.6968 24.8978 68.1914L32.0973 57.2968C32.4559 56.7549 32.4988 56.0607 32.2101 55.4775L29.1904 49.3846L38.0774 40.4197L36.0544 48.5866C35.9001 49.205 36.0801 49.86 36.527 50.3102L42.9395 56.7808L39.6911 66.6095C39.5091 67.1634 39.6021 67.7718 39.9402 68.2453C40.2784 68.7187 40.8216 68.9993 41.3996 69H62.9996C63.4775 69 63.935 68.8092 64.2731 68.4687C64.6106 68.1276 64.7998 67.6661 64.7998 67.184V30.053L69.3626 32.4755C69.6204 32.6131 69.9078 32.6849 70.1998 32.6843C70.6777 32.6849 71.1358 32.4941 71.4733 32.1536C71.8115 31.8125 72.0007 31.3504 72 30.8683V19.9737C72 19.2994 71.6289 18.6804 71.0369 18.3678V18.3678ZM61.2 65.3687H43.896L46.7087 56.8639C46.9229 56.2116 46.7541 55.4921 46.2723 55.0061L39.7932 48.4696L43.1471 34.9404C43.3422 34.1485 42.9902 33.3226 42.2862 32.921C41.5822 32.5194 40.6996 32.6404 40.1274 33.2169L25.727 47.7428C25.1793 48.2954 25.0435 49.1399 25.3895 49.8387L28.522 56.1584L22.4371 65.3687H10.8V28.142L35.9997 14.7625L61.2 28.1413V65.3687ZM68.3996 27.8614L36.8381 11.1045C36.3134 10.8259 35.6859 10.8259 35.1612 11.1045L3.59977 27.8614V21.0709L35.9997 3.86786L68.3996 21.0702V27.8614Z" />
</svg>
