<svg width="74" height="74" viewBox="0 0 74 74" fill="#333333" xmlns="http://www.w3.org/2000/svg">
<path d="M60.6683 24.8041C60.6692 24.8016 60.6702 24.7993 60.671 24.7969C60.6767 24.7766 60.6692 24.8005 60.6683 24.8041Z" />
<path d="M65.2683 23.6446C65.308 23.2281 65.3281 22.8134 65.3281 22.4023C65.3281 14.8314 59.1686 8.67188 51.5977 8.67188C50.947 8.67188 50.3041 8.71943 49.6718 8.80904C47.6638 3.59738 42.5804 0 36.8555 0C32.292 0 28.0891 2.26423 25.5566 5.93474C23.7234 4.89296 21.6457 4.33594 19.5117 4.33594C12.7377 4.33594 7.22656 9.84706 7.22656 16.6211C7.22656 17.0623 7.25027 17.5024 7.29753 17.9397C3.01059 19.4158 0 23.4792 0 28.1836C0 34.1607 4.86275 39.0234 10.8398 39.0234H14.9603C15.9674 43.9653 20.3471 47.6953 25.582 47.6953H61.7148C68.4889 47.6953 74 42.1842 74 35.4102C74 29.884 70.3776 25.172 65.2683 23.6446ZM14.9599 34.6875H10.8398C7.25359 34.6875 4.33594 31.7698 4.33594 28.1836C4.33594 24.8821 6.80713 22.1068 10.0841 21.7281C10.7231 21.6543 11.2963 21.3006 11.6488 20.7623C12.0012 20.2243 12.0965 19.5575 11.9089 18.9421C11.6791 18.1884 11.5625 17.4073 11.5625 16.6211C11.5625 12.2379 15.1285 8.67188 19.5117 8.67188C21.4655 8.67188 23.3486 9.39728 24.8144 10.7142C25.3321 11.1795 26.0418 11.3677 26.7219 11.2205C27.4023 11.0733 27.9704 10.6084 28.2495 9.97092C29.7477 6.54784 33.1258 4.33594 36.8555 4.33594C40.6746 4.33594 44.076 6.67445 45.5169 10.0944C43.4402 11.122 41.6363 12.668 40.2988 14.6068C38.4655 13.5648 36.3879 13.0078 34.2539 13.0078C27.4799 13.0078 21.9688 18.5189 21.9688 25.293C21.9688 25.7342 21.9925 26.1743 22.0397 26.6117C18.4282 27.8551 15.7228 30.9352 14.9599 34.6875V34.6875ZM61.7148 43.3594H25.582C21.9958 43.3594 19.0781 40.4417 19.0781 36.8555C19.0781 34.1058 20.7931 31.7223 23.2593 30.7833C23.843 31.9509 24.6169 33.0297 25.567 33.9797C25.9903 34.4031 26.5452 34.6148 27.0999 34.6148C27.6546 34.6148 28.2096 34.4031 28.6329 33.9797C29.4795 33.1332 29.4795 31.7605 28.6329 30.9138C27.6974 29.9782 27.0255 28.845 26.6511 27.614C26.4213 26.8603 26.3047 26.0792 26.3047 25.293C26.3047 20.9098 29.8707 17.3438 34.2539 17.3438C35.7381 17.3438 37.1811 17.7633 38.4317 18.5419C37.7455 20.8836 37.6763 23.405 38.3008 25.8331C38.5989 26.9927 39.7811 27.6912 40.9404 27.3927C42.0999 27.0946 42.7983 25.9127 42.5001 24.753C41.9732 22.7037 42.1726 20.5351 42.9917 18.6428C44.4899 15.2197 47.868 13.0078 51.5977 13.0078C56.7778 13.0078 60.9922 17.2222 60.9922 22.4023C60.9922 23.1793 60.8839 23.9847 60.6703 24.7961C60.6686 24.8027 60.6683 24.8036 60.6684 24.8024C60.2557 26.3304 59.4379 27.8477 58.2405 29.0451C57.3938 29.8917 57.3938 31.2644 58.2405 32.1111C58.6638 32.5344 59.2186 32.7462 59.7734 32.7462C60.3281 32.7462 60.8831 32.5344 61.3063 32.1111C62.5676 30.8498 63.5287 29.4014 64.1947 27.8549C67.4046 28.8982 69.6641 31.8992 69.6641 35.4102C69.6641 39.7934 66.098 43.3594 61.7148 43.3594Z" />
<path d="M45.136 59.9082C44.5373 58.8713 43.2114 58.5158 42.1745 59.1147L39.168 60.8504V57.3789C39.168 56.1816 38.1973 55.2109 37 55.2109C35.8027 55.2109 34.832 56.1816 34.832 57.3789V60.8504L31.8256 59.1146C30.7885 58.5155 29.4626 58.871 28.8642 59.9081C28.2655 60.9451 28.6208 62.271 29.6577 62.8695L32.6641 64.6055L29.6575 66.3413C28.6207 66.9399 28.2654 68.2657 28.864 69.3027C29.2656 69.9982 29.9943 70.3872 30.7435 70.3872C31.1112 70.3872 31.4841 70.2935 31.8255 70.0962L34.832 68.3605V71.832C34.832 73.0293 35.8027 74 37 74C38.1973 74 39.168 73.0293 39.168 71.832V68.3605L42.1744 70.0964C42.5158 70.2935 42.8885 70.3873 43.2563 70.3873C44.0056 70.3873 44.7344 69.9984 45.1358 69.3029C45.7345 68.2659 45.3792 66.9399 44.3423 66.3414L41.3359 64.6055L44.3425 62.8696C45.3794 62.2711 45.7346 60.9452 45.136 59.9082V59.9082Z" />
<path d="M68.261 59.9082C67.6623 58.8713 66.3364 58.5158 65.2995 59.1147L62.293 60.8504V57.3789C62.293 56.1816 61.3223 55.2109 60.125 55.2109C58.9277 55.2109 57.957 56.1816 57.957 57.3789V60.8504L54.9506 59.1146C53.9136 58.5155 52.5877 58.871 51.9892 59.9081C51.3905 60.9451 51.7458 62.271 52.7827 62.8695L55.7891 64.6055L52.7825 66.3413C51.7457 66.9399 51.3904 68.2657 51.9891 69.3027C52.3906 69.9982 53.1193 70.3872 53.8685 70.3872C54.2362 70.3872 54.6091 70.2935 54.9505 70.0962L57.957 68.3605V71.832C57.957 73.0293 58.9277 74 60.125 74C61.3223 74 62.293 73.0293 62.293 71.832V68.3605L65.2994 70.0964C65.6408 70.2935 66.0135 70.3873 66.3813 70.3873C67.1306 70.3873 67.8594 69.9984 68.2608 69.3029C68.8595 68.2659 68.5042 66.9399 67.4673 66.3414L64.4609 64.6055L67.4675 62.8696C68.5043 62.2711 68.8596 60.9452 68.261 59.9082V59.9082Z" />
<path d="M22.011 59.9082C21.4123 58.8713 20.0864 58.5158 19.0495 59.1147L16.043 60.8504V57.3789C16.043 56.1816 15.0723 55.2109 13.875 55.2109C12.6777 55.2109 11.707 56.1816 11.707 57.3789V60.8504L8.70064 59.1146C7.66348 58.5155 6.3377 58.871 5.73919 59.9081C5.14055 60.9451 5.4958 62.271 6.53267 62.8695L9.53907 64.6055L6.53253 66.3413C5.49566 66.9399 5.1404 68.2657 5.73905 69.3027C6.14056 69.9982 6.86928 70.3872 7.61853 70.3872C7.98622 70.3872 8.35911 70.2935 8.7005 70.0962L11.707 68.3605V71.832C11.707 73.0293 12.6777 74 13.875 74C15.0723 74 16.043 73.0293 16.043 71.832V68.3605L19.0494 70.0964C19.3908 70.2935 19.7635 70.3873 20.1313 70.3873C20.8806 70.3873 21.6095 69.9984 22.0108 69.3029C22.6095 68.2659 22.2542 66.9399 21.2173 66.3414L18.2109 64.6055L21.2175 62.8696C22.2543 62.2711 22.6096 60.9452 22.011 59.9082V59.9082Z" />
</svg>
