<svg width="178" height="200" viewBox="0 0 178 200" fill="#BDBDBD" xmlns="http://www.w3.org/2000/svg">
<path d="M54.0511 38.1574C64.588 38.1574 73.1298 29.6156 73.1298 19.0787C73.1298 8.54182 64.588 0 54.0511 0C43.5142 0 34.9724 8.54182 34.9724 19.0787C34.9724 29.6156 43.5142 38.1574 54.0511 38.1574Z" />
<path d="M173.325 156.67C170.798 151.199 165.752 147.2 159.442 147.2H119.477L114.849 97.77L99.2846 59.0678H119.477L131.887 83.0494C132.637 84.504 133.789 85.7131 135.205 86.5332C136.621 87.3534 138.243 87.7503 139.878 87.6769C142.206 87.6265 144.424 86.6794 146.071 85.0332C147.717 83.3869 148.664 81.1686 148.714 78.841C148.747 77.4354 148.382 76.0492 147.661 74.842L133.778 48.5497C132.163 45.3694 129.693 42.7015 126.647 40.8449C123.601 38.9884 120.099 38.0163 116.531 38.0376H69.8375C66.3351 38.0474 62.8746 38.7993 59.6841 40.244C56.4936 41.6886 53.6454 43.793 51.3275 46.4186L29.4531 73.7944H11.3742V73.8423C5.04056 74.1955 0 78.6314 0 84.109C0 89.5866 5.01661 94.0165 11.3742 94.3697V94.4056H30.0817C32.9992 94.4065 35.8788 93.7441 38.5026 92.4685C41.1265 91.1928 43.426 89.3374 45.2273 87.0423L58.6668 70.6336L72.7588 105.953L27.3459 200H45.2273C50.6929 200 55.3204 197.055 57.4276 192.637L94.4476 115.861L99.0751 159.191C99.2846 164.243 103.703 168.027 108.749 168.027H177.743L173.325 156.67Z" />
</svg>
