<svg width="55" height="55" viewBox="0 0 55 55" fill="none" xmlns="http://www.w3.org/2000/svg">
<path d="M48.75 0H11.25C7.80375 0 5 2.80375 5 6.25V31.25C5 31.6562 8.41875 44.7662 8.75 45L27.795 49.2237L48.75 50C52.1962 50 55 47.1962 55 43.75V6.25C55 2.80375 52.1962 0 48.75 0Z" fill="#2270C4"/>
<path d="M30.2597 49.7702L27.7947 49.2239L14.9997 48.7502C14.741 48.7502 30.471 49.9202 30.2597 49.7702Z" fill="#2270C4"/>
<path d="M30.2612 47.27L20.5687 46.3012L16.0362 41.7687L19.1112 42.2075C23.0437 42.7912 24.8587 37.3662 21.385 35.4512L12.99 30.7875C12.0637 30.2725 11.0137 30 9.95375 30H1.25C0.56 30 0 30.56 0 31.25V43.75C0 44.1675 0.20875 44.5575 0.55625 44.79L14.2975 53.95C15.3275 54.6362 16.5262 55 17.7637 55H29.875C34.7337 54.905 35.1062 47.8425 30.2612 47.27Z" fill="#FFD889"/>
<path d="M40.2371 20.6345H35.2844V15.6881C35.2844 15.0056 34.7297 14.4516 34.0462 14.4516C26.6445 14.569 27.9718 13.236 27.8554 20.6345H22.9027C22.2192 20.6345 21.6645 21.1885 21.6645 21.8711C21.7822 29.2634 20.4474 27.9378 27.8554 28.054V33.0003C27.8554 33.6829 28.4101 34.2369 29.0936 34.2369C36.4953 34.1194 35.168 35.4525 35.2844 28.054H40.2371C40.9205 28.054 41.4752 27.5 41.4752 26.8174V21.8711C41.4752 21.1885 40.9205 20.6345 40.2371 20.6345Z" fill="white"/>
</svg>
