<svg width="40" height="40" viewBox="0 0 40 40" fill="#BDBDBD" xmlns="http://www.w3.org/2000/svg">
<path fill-rule="evenodd" clip-rule="evenodd" d="M20 21.2367C19.3988 21.2482 18.8013 21.1398 18.2425 20.9177C17.6837 20.6956 17.1748 20.3643 16.7455 19.9432C16.3163 19.5221 15.9753 19.0197 15.7425 18.4652C15.5097 17.9108 15.3898 17.3155 15.3898 16.7142C15.3898 16.1129 15.5097 15.5176 15.7425 14.9632C15.9753 14.4087 16.3163 13.9063 16.7455 13.4852C17.1748 13.0641 17.6837 12.7328 18.2425 12.5107C18.8013 12.2886 19.3988 12.1802 20 12.1917C21.1844 12.2144 22.3126 12.7009 23.1422 13.5466C23.9718 14.3922 24.4365 15.5296 24.4365 16.7142C24.4365 17.8988 23.9718 19.0362 23.1422 19.8818C22.3126 20.7275 21.1844 21.214 20 21.2367ZM16.46 1.72837C9.34333 3.31671 4.35333 10.015 4.63333 17.3017C4.85333 23.025 8.365 28.145 18.8133 38.19C19.4733 38.8234 20.53 38.8267 21.1917 38.1917C31.9983 27.8034 35.385 22.6834 35.385 16.7134C35.385 7.06337 26.4967 -0.511628 16.46 1.73004"/>
</svg>
