<svg width="40" height="40" viewBox="0 0 40 40" fill="#bdbdbd" xmlns="http://www.w3.org/2000/svg">
<path fill-rule="evenodd" clip-rule="evenodd" d="M30.9091 22.2673H27.2527L25.9436 27.0291C25.8294 27.4549 25.5772 27.8308 25.2265 28.098C24.8757 28.3651 24.4463 28.5084 24.0055 28.5055H24.0036C23.0873 28.5055 22.3091 27.9109 22.0673 27.0291L20 19.5236L17.9345 27.0291C17.8203 27.4549 17.5681 27.8308 17.2174 28.098C16.8666 28.3651 16.4372 28.5084 15.9964 28.5055C15.08 28.5055 14.3018 27.9127 14.0582 27.0309L12.7473 22.2673H9.09091C8.65692 22.2673 8.2407 22.0949 7.93383 21.788C7.62695 21.4811 7.45455 21.0649 7.45455 20.6309C7.45455 20.1969 7.62695 19.7807 7.93383 19.4738C8.2407 19.1669 8.65692 18.9945 9.09091 18.9945H11.8473L10.7 14.8273C10.6365 14.6182 10.6156 14.3985 10.6384 14.1812C10.6613 13.9638 10.7274 13.7533 10.8329 13.5619C10.9384 13.3706 11.0812 13.2023 11.2528 13.067C11.4244 12.9317 11.6214 12.8322 11.8321 12.7743C12.0428 12.7163 12.2629 12.7012 12.4796 12.7297C12.6962 12.7583 12.905 12.8299 13.0935 12.9404C13.282 13.051 13.4464 13.1981 13.5771 13.3732C13.7079 13.5483 13.8022 13.7479 13.8545 13.96L15.9964 21.7382L18.0618 14.2345C18.1754 13.8082 18.4274 13.4317 18.7782 13.1642C19.1291 12.8966 19.5588 12.7532 20 12.7564C20.9164 12.7564 21.6964 13.3509 21.9382 14.2345L24.0055 21.7382L26.1455 13.96C26.2024 13.7528 26.2996 13.5587 26.4315 13.3891C26.5635 13.2194 26.7275 13.0773 26.9143 12.9711C27.1011 12.8648 27.3071 12.7963 27.5203 12.7696C27.7336 12.7429 27.95 12.7585 28.1573 12.8155C28.3645 12.8724 28.5585 12.9696 28.7282 13.1015C28.8979 13.2335 29.0399 13.3975 29.1462 13.5843C29.2525 13.7711 29.3209 13.9771 29.3476 14.1903C29.3743 14.4036 29.3588 14.62 29.3018 14.8273L28.1527 18.9945H30.9091C31.3431 18.9945 31.7593 19.1669 32.0662 19.4738C32.3731 19.7807 32.5455 20.1969 32.5455 20.6309C32.5455 21.0649 32.3731 21.4811 32.0662 21.788C31.7593 22.0949 31.3431 22.2673 30.9091 22.2673ZM20 0C8.95455 0 0 8.95455 0 20C0 31.0473 8.95455 40 20 40C31.0455 40 40 31.0473 40 20C40 8.95455 31.0455 0 20 0Z"/>
</svg>
