<svg width="50" height="56" viewBox="0 0 50 56" fill="none" xmlns="http://www.w3.org/2000/svg">
<path d="M49.5837 21.6604L25.8337 0.320104C25.3587 -0.106701 24.6413 -0.106701 24.1663 0.320104L0.41625 21.6604C0.15125 21.8976 0 22.2378 0 22.5956V27.6168C0 28.3098 0.56 28.8722 1.25 28.8722H2.5V48.9571C2.5 49.6501 3.06 50.2124 3.75 50.2124H46.25C46.9412 50.2124 47.5 49.6501 47.5 48.9571V28.8722H48.75C49.4412 28.8722 50 28.3098 50 27.6168V22.5956C50 22.2378 49.8488 21.8976 49.5837 21.6604Z" fill="#FFF4D1"/>
<path d="M48.75 47.7017H1.25C0.56 47.7017 0 48.264 0 48.957V53.9782C0 54.6711 0.56 55.2335 1.25 55.2335H48.75C49.4412 55.2335 50 54.6711 50 53.9782V48.957C50 48.264 49.4412 47.7017 48.75 47.7017Z" fill="#FFF4D1"/>
<path d="M24.1864 44.8888C24.6552 45.2917 25.3452 45.2917 25.8139 44.8888L35.8876 36.2171C38.5014 33.9676 40.0002 30.695 40.0002 27.2391C40.0864 20.0161 31.0252 16.2438 26.0114 21.4195L25.0002 22.4338C23.2614 20.4391 20.9127 18.9415 18.1952 19.0093C8.74265 19.3507 7.71515 30.9712 14.1127 36.2171L24.1864 44.8888Z" fill="#FFABC1"/>
</svg>
